<svg width="17" height="17" viewBox="0 0 17 17" fill="none" xmlns="http://www.w3.org/2000/svg">
<path d="M16.2509 7.45096H13.096L10.8306 1.00297C10.6935 0.612656 10.266 0.407334 9.87557 0.5445C9.48522 0.681628 9.27997 1.10923 9.4171 1.49957L11.508 7.45092H5.49203L7.5829 1.49957C7.72003 1.10923 7.51478 0.681628 7.12443 0.5445C6.7342 0.407334 6.30652 0.612656 6.1694 1.00297L3.90404 7.45096H0.749122C0.3354 7.45096 0 7.78632 0 8.20008C0 8.6138 0.3354 8.9492 0.749122 8.9492H0.954369L2.79002 15.6488C2.92744 16.1504 3.38327 16.4981 3.90329 16.4981H13.1477C13.6705 16.4981 14.128 16.1468 14.2629 15.6417L16.0507 8.94917H16.2508C16.6646 8.9492 17 8.6138 17 8.20008C17 7.78636 16.6646 7.45096 16.2509 7.45096ZM6.0454 14.0492C6.0454 14.4629 5.71 14.7983 5.29628 14.7983C4.88256 14.7983 4.54716 14.4629 4.54716 14.0492V10.2455C4.54716 9.83174 4.88256 9.49634 5.29628 9.49634C5.71 9.49634 6.0454 9.83174 6.0454 10.2455V14.0492ZM9.2491 14.0492C9.2491 14.4629 8.9137 14.7983 8.49998 14.7983C8.08626 14.7983 7.75086 14.4629 7.75086 14.0492V10.2455C7.75086 9.83174 8.08626 9.49634 8.49998 9.49634C8.9137 9.49634 9.2491 9.83174 9.2491 10.2455V14.0492ZM12.4528 14.0492C12.4528 14.4629 12.1174 14.7983 11.7037 14.7983C11.29 14.7983 10.9546 14.4629 10.9546 14.0492V10.2455C10.9546 9.83174 11.29 9.49634 11.7037 9.49634C12.1174 9.49634 12.4528 9.83174 12.4528 10.2455V14.0492Z" fill="white"/>
</svg>
