<svg width="34" height="34" viewBox="0 0 34 34" fill="none" xmlns="http://www.w3.org/2000/svg">
<path d="M29.0195 0H4.98047C2.23447 0 0 2.23447 0 4.98047V29.0195C0 31.7655 2.23447 34 4.98047 34H29.0195C31.7655 34 34 31.7655 34 29.0195V4.98047C34 2.23447 31.7655 0 29.0195 0ZM17.0664 25.8984C12.123 25.8984 8.10156 21.877 8.10156 16.9336C8.10156 11.9902 12.123 7.96875 17.0664 7.96875C22.0098 7.96875 26.0312 11.9902 26.0312 16.9336C26.0312 21.877 22.0098 25.8984 17.0664 25.8984ZM27.0273 9.96094C25.3796 9.96094 24.0391 8.62036 24.0391 6.97266C24.0391 5.32495 25.3796 3.98438 27.0273 3.98438C28.675 3.98438 30.0156 5.32495 30.0156 6.97266C30.0156 8.62036 28.675 9.96094 27.0273 9.96094Z" fill="#CBA550"/>
<path d="M27.0273 5.97656C26.4777 5.97656 26.0312 6.42299 26.0312 6.97266C26.0312 7.52232 26.4777 7.96875 27.0273 7.96875C27.577 7.96875 28.0234 7.52232 28.0234 6.97266C28.0234 6.42299 27.577 5.97656 27.0273 5.97656Z" fill="#CBA550"/>
<path d="M17.0664 9.96094C13.2221 9.96094 10.0938 13.0893 10.0938 16.9336C10.0938 20.7779 13.2221 23.9062 17.0664 23.9062C20.9107 23.9062 24.0391 20.7779 24.0391 16.9336C24.0391 13.0893 20.9107 9.96094 17.0664 9.96094Z" fill="#CBA550"/>
</svg>
