<svg width="24" height="36" viewBox="0 0 24 36" fill="none" xmlns="http://www.w3.org/2000/svg">
<path d="M12.1656 13.112C14.2456 13.112 16.1016 13.512 17.7336 14.312C19.3656 15.112 20.6456 16.28 21.5736 17.816C22.5336 19.352 23.0136 21.256 23.0136 23.528C23.0136 27.24 21.8616 30.168 19.5576 32.312C17.2536 34.424 13.8456 35.48 9.33363 35.48C7.54163 35.48 5.84563 35.32 4.24563 35C2.67763 34.68 1.30163 34.216 0.117625 33.608V27.368C1.30163 27.976 2.72563 28.504 4.38963 28.952C6.05363 29.368 7.62163 29.576 9.09363 29.576C11.2376 29.576 12.8696 29.144 13.9896 28.28C15.1416 27.384 15.7176 26.008 15.7176 24.152C15.7176 20.696 13.4296 18.968 8.85363 18.968C7.95763 18.968 7.02963 19.064 6.06963 19.256C5.10963 19.416 4.30963 19.576 3.66963 19.736L0.789625 18.2L2.08563 0.727998H20.6616V6.872H8.42163L7.79763 13.592C8.34163 13.496 8.91763 13.4 9.52563 13.304C10.1656 13.176 11.0456 13.112 12.1656 13.112Z" fill="#73581B"/>
</svg>
