<svg width="40" height="40" viewBox="0 0 40 40" fill="none" xmlns="http://www.w3.org/2000/svg">
<path d="M28.497 6.56719C28.497 6.56719 26.494 4.52406 22.9178 2.83514C19.3412 1.14579 14.6976 -0.294981 14.2992 1.6421C13.9017 3.58126 17.8815 5.09266 20.1661 6.11006C22.4511 7.12975 24.4488 8.37926 24.4988 8.70242C24.5476 9.02412 24.4959 8.91785 23.7012 10.359C22.9066 11.7979 23.5394 12.9902 23.092 13.3904C22.6445 13.7869 21.2783 14.8535 16.6338 14.8293C11.9906 14.8037 3.23076 17.002 3.17054 27.3371C3.17054 28.2278 3.40828 28.5834 2.69653 28.7028C1.98333 28.821 0 29.18 0 31.6136C0 34.0513 1.86374 34.7043 2.99302 34.6422C4.12189 34.5845 6.20065 33.0991 6.61653 33.3956C7.03241 33.6942 7.27014 34.6422 6.97386 35.5333C6.67591 36.4253 6.02292 37.4967 6.37817 38.1499C6.73592 38.8022 6.85468 39.2752 8.45797 39.2752C10.0621 39.2752 25.5068 39.2752 25.5068 39.2752C25.5068 39.2752 26.5161 39.0389 26.5161 37.6142C26.5161 36.1886 25.8629 34.7043 17.1312 34.941C22.5955 34.3472 24.6755 30.4853 24.3186 27.6936C24.304 27.0058 24.7341 26.8618 25.2097 28.1692C25.685 29.4742 31.0306 37.3164 31.0306 37.3164C31.0306 37.3164 32.3376 39.275 33.7038 39.275C35.0699 39.275 38.3961 39.5138 38.3961 37.7336C38.3961 35.9511 36.6124 35.3152 34.5359 35.4158C33.2875 35.4765 33.2289 33.6342 33.2289 33.6342C33.2289 33.6342 32.1594 30.7814 32.7541 20.9195C32.8057 20.4443 33.1008 20.3888 33.8821 20.3855C34.8401 20.3795 38.9322 19.4935 39.7625 17.7115C40.5947 15.929 39.1691 12.6597 36.6141 9.9265C34.0613 7.19663 32.2023 5.94254 28.497 6.56719Z" fill="#73581B"/>
</svg>
