<svg width="73" height="67" viewBox="0 0 73 67" fill="none" xmlns="http://www.w3.org/2000/svg">
<path d="M64.2075 32.2713C75.2362 22.6153 73.5423 2.42531 71.5068 0.385719C70.3683 -0.752463 67.6958 4.70609 60.5783 9.08497C59.9601 9.69611 59.1797 12.992 59.2175 17.7434C59.2175 17.7434 57.8786 14.2932 57.9896 10.5987C56.339 11.4892 54.5231 12.3307 52.5796 13.125C46.3512 15.6698 41.9793 21.3726 41.1391 28.0484C41.0578 24.4353 38.8841 21.7523 40.7759 17.0955C34.3684 18.9768 27.8552 20.7586 22.9114 23.1166C18.6343 25.1469 15.4875 28.966 14.303 33.5506C13.7176 35.8207 13.3379 38.6111 13.3624 42.1279C12.8639 41.7877 11.0424 36.6704 11.5087 31.1911C4.71881 38.3562 4.86508 49.3524 7.29366 56.3128V56.3142C4.52622 54.1879 0 55.4332 0 55.4332C3.35284 55.8953 5.14163 58.5557 5.14163 58.5557C0.222304 60.1737 0 66.7669 0 66.7669C2.77552 60.9841 10.2834 61.6076 10.2834 61.6076C10.3428 61.6673 10.4026 61.7011 10.4621 61.7566C9.24518 49.9922 16.4305 38.1298 28.5461 34.2565C35.9864 31.8782 52.6557 26.8298 59.2094 22.4756C55.3903 28.6038 34.8398 36.2284 29.8745 38.0445C19.0598 41.805 12.8311 52.4016 13.1863 62.9154C17.1271 62.8599 22.0657 56.5243 31.8856 51.5652C30.7309 50.2873 25.9605 48.1191 20.7239 49.4906C26.4997 46.2921 31.243 46.0035 35.0729 46.5944C38.4313 47.1123 41.8734 46.6174 44.9442 45.1647C44.9469 45.162 44.9526 45.1606 44.9553 45.1593C50.6798 42.4191 56.9839 38.9227 62.031 34.3921C61.3479 33.2012 58.2932 30.8889 54.3876 32.3053C58.4858 29.9052 61.6948 30.7724 64.2075 32.2713Z" fill="#CBA550"/>
</svg>
