<svg xmlns="http://www.w3.org/2000/svg" viewBox="0 0 1927.28 1962.01"><defs><style>.cls-1{fill:#caa550;}</style></defs><title>Ресурс 2</title><g id="Слой_2" data-name="Слой 2"><g id="Слой_1-2" data-name="Слой 1"><path class="cls-1" d="M1619,963.16c4.18-11.81,11.17-20.7,17.9-29.75,15.2-20.44,36-31.75,60.47-36.79,32-6.6,64-8.6,95.69,1.77,45,14.73,75.29,45.35,93.68,88.2,13.92,32.43,20.45,66.66,22.85,101.77A76.83,76.83,0,0,1,1904,1122c-3,7.62-1.33,14.29,3.27,20.67,1.47,2,2.83,3.11,5.34,1.75,3.77-2,7.55-1.8,10.63,1.18a12.24,12.24,0,0,1,3.77,11.81,29.9,29.9,0,0,1-3.36,8.31c-7.54,13.71-14.3,27.89-23.27,40.76-6.67,9.55-9,20.14-9.76,31.47-1.19,17.59-2.78,35.14-4.62,52.69-2.84,27.18-14.33,50.27-30.91,71.37-15.53,19.78-29.93,40.44-46,59.82-2.95,3.55-1.81,5.1,1.91,6,4.51,1.11,9.1,1.93,13.62,3,4.11,1,7.51,3,8,7.74.54,5.13-2.79,8-6.9,9.18-9.22,2.73-14.86,8.56-18.46,17.37-3.66,9-10.65,15.21-19.25,19.53-5.32,2.67-9.56,6.56-13.58,10.84-2.51,2.66-2.89,4.51.8,6.42a16.22,16.22,0,0,1,7.74,8.81c4.5,11.44-1.21,19.51-11.74,19.61-11.15.11-22.14,2.34-33,4.6-12.75,2.64-16.46,6.44-16.77,19.47-.76,31.2-13.5,58.37-28.21,84.8-5.83,10.48-15.27,17.82-24.82,25-31,23.33-62.23,46.41-92.11,71.21a153.65,153.65,0,0,0-19.82,20.43c-15.31,18.48-35.56,26-58.63,28.17-7.16.67-14.19,1.1-21.37.09-6-.83-6.64.17-6.79,6.08-.12,4.65.21,9.3-.49,14-1.24,8.33-5.77,14.35-13.28,17.48-12.7,5.3-25.71,9.52-39.55,3.74-2.64-1.1-4.88.13-7.08,1.34-14.14,7.81-28.6,15.1-42.35,23.55-23.38,14.38-48.58,17.18-75.05,13.57a54.65,54.65,0,0,1-14.24-4.5c-5.23-2.28-8.88-1-12.6,3.38a411.56,411.56,0,0,1-41.83,42.21c-18.2,16-40,23.25-63.42,27a247.46,247.46,0,0,1-31.72,3.55c-13,.42-25.91-.43-38.35-5.07-11.18-4.18-10.89-3.36-19.17,4.93-14.58,14.61-31,26.92-52.94,26.37-13.42-.34-26.4-3.76-36.51-13.78a10.35,10.35,0,0,0-7.6-3.22c-1.5,0-3,.07-4.49,0-11.34-.78-22.26-.27-30.41,9.33-19.21,9.24-38.39,11.76-57.59-.12-10.06-6.23-20.33-12.14-27.37-22.14-3.08-4.37-7.48-4.66-12.06-2.73a85.9,85.9,0,0,1-35.12,6.51c-24.38-.39-48.41-3.62-71.5-12.06-14.36-5.24-26.42-14.09-37.43-24.38-12.54-11.72-24.79-23.76-35.78-37-3.27-3.92-6.65-4.73-11.39-3.08-29.15,10.15-57.53,8.7-84.85-6.24q-23.24-12.7-46.34-25.62c-3.78-2.12-7.09-2.26-11.29-.73-10.45,3.8-20.79.86-30.73-2.46-14.64-4.89-19.34-12.12-19.54-27.6-.15-11.8,2.73-12.3-12.49-12-26.41.58-52.19-3.49-70.87-25.29-23.79-27.77-54-47.87-82.49-70.07-12.48-9.73-24.89-19.54-37.83-28.67a73.34,73.34,0,0,1-21.86-24.38,233.23,233.23,0,0,1-24.65-63.53c-1.45-6.58-1.1-13.57-1.54-20.37-.62-9.55-3.42-13.47-12.7-16.09a174.77,174.77,0,0,0-28.93-5.12c-3.64-.38-7.31-.51-10.94-.94-7.08-.83-11.38-6.2-10.48-13.24.78-6.22,3.22-11.68,9.06-14.71,4-2.07,3.47-4,.8-6.74-3.73-3.84-7.43-7.66-12.33-10-10-4.85-17.42-12.29-21.6-22.6-2.91-7.17-7.72-11.83-15.16-13.94a17.47,17.47,0,0,1-5.31-2.72c-5.55-4-4.81-11,1.39-14.07,3.49-1.74,7.37-1.94,11.08-2.83,1-.23,2-.21,3-.44,7.37-1.76,7.85-2.73,3-8.61-16.25-19.86-30.91-40.94-46.8-61.08a135.1,135.1,0,0,1-29.46-75.57c-1.3-17.92-3.27-35.79-4.7-53.7a42.66,42.66,0,0,0-7.23-20.46C19,1194.83,11,1179.43,2.84,1164.17c-2.4-4.47-4-9.13-1.74-14.3,2.53-5.69,7.2-8,12.9-5.61,3.25,1.4,4.81.44,6.48-2.19,3.34-5.23,6.24-10.84,3.64-16.89-8.29-19.23-6.84-39-4.34-59,3.62-28.89,10.3-57.08,22.53-83.52,23-49.8,60.88-81.53,116-89.63a182.8,182.8,0,0,1,94.18,10.72c16.2,6.33,28.65,17.36,39,31.05,6.41,8.51,12.91,17,16.43,27.29,2.77-.68,3.15-3.16,4.41-4.76,4.27-5.39,9.16-6.36,14.8-2.51a19.79,19.79,0,0,1,8.51,13c1.41,7.34,2.53,14.74,4.07,22.06,2.48,11.75,9.21,21,18.22,28.52,9.29,7.75,31.54,7.48,40.95-.06,4.44-3.56,6.1-8.72,7.58-13.79a313.46,313.46,0,0,0,11.31-62.22c2-23.54,4.46-47,6.59-70.57,1.86-20.38,3.51-40.78,5.3-61.17q3.32-37.78,6.69-75.57c1.46-16.58,2.83-33.16,4.28-49.74q3.36-38.28,6.76-76.57c1.79-20.39,3.46-40.79,5.31-61.17q3.24-35.79,6.7-71.56c2-20.36,4.12-40.71,6.11-61.08,2.2-22.55,7.16-44.63,11.68-66.78,3.17-15.47,6.72-30.86,11.41-46a59.29,59.29,0,0,1,4-10.22c1.71-3.26,3.94-6,8-5.8s6.63,2.72,8.28,6.3c2.53,5.5,3.6,11.42,4.67,17.3,6.49,35.6,6.23,71.53,5.58,107.53-.64,35.16-.41,70.33-.68,105.5-.28,36.83-.4,73.66-1.17,110.48-.63,30.32-.13,60.66-1,91s-.19,60.66-1,91-.18,60.33-1,90.48c-.88,33.16-.22,66.33-1,99.48-.56,23.33-.33,46.66-.61,70-.22,18.46,8.81,32.38,21.65,44.25a39.5,39.5,0,0,0,31.65,10.83c7.1-.66,12.79-3.67,16.81-9.46a62.82,62.82,0,0,0,10.82-30.7c3.25-35.79,6.69-71.56,9.89-107.36,2.57-28.84,4.83-57.7,7.33-86.55,3.17-36.46,6.5-72.92,9.65-109.39,2.2-25.53,4.14-51.08,6.33-76.61,2.83-33.16,5.85-66.3,8.67-99.46,2.19-25.7,4.14-51.42,6.33-77.12,2.82-33.16,5.84-66.3,8.66-99.46,2.19-25.7,4.15-51.42,6.34-77.12,2.48-29.18,5.15-58.34,7.66-87.52,1.82-21.22,3.44-42.46,5.3-63.68,2.48-28.34,5.1-56.67,7.66-85q.63-7,1.24-13.93a15.13,15.13,0,0,1,11.43-13.55c5.08-1.28,9.84,1.1,13.74,6.86a33.15,33.15,0,0,1,5.9,19.22c-.21,84.33.11,168.67-.51,253-.55,73.5-.08,147-.91,220.49-.86,75.82-.22,151.65-1,227.48-.94,89-.46,178-1,267-.14,23.83-.21,47.65-.39,71.48-.17,21.44,2.94,42.14,13.3,61.28a218.89,218.89,0,0,0,23.35,34.21c8.45,10.35,19.07,14,32,10,1.11-.34,2.26-.54,3.38-.86,20.81-5.86,29.81-17.81,30.72-39.41,1.72-40.77,3.82-81.51,5.69-122.27.82-17.8,1.47-35.62,2.21-53.42Q819,990,821.44,931.57c.77-18.81,1.42-37.62,2.18-56.42q2.36-57.66,4.78-115.32c.76-18.64,1.44-37.28,2.19-55.92q2.4-59.16,4.81-118.32c.77-19.31,1.44-38.62,2.22-57.93q2.36-58.41,4.8-116.82c.75-18.47,1.42-36.95,2.18-55.42q2.37-57.92,4.78-115.82c.78-19,1.43-37.95,2.25-56.92q2.31-54.41,4.76-108.81c.74-16.81,1.68-33.61,2.19-50.42.24-8.11,3.57-14.42,9.5-19.56,6.73-5.84,14.13-5.06,19.44,2.06a38.59,38.59,0,0,1,7.91,22.72c.71,30.31,1.54,60.62,2.24,90.94q1.67,72.2,3.23,144.41.87,38.73,1.79,77.45,1.62,73.69,3.19,147.41c.58,26.65,1.23,53.3,1.81,80q1.62,73.45,3.2,146.91.87,39.74,1.82,79.45,1.59,70.21,3.17,140.42.89,38.22,1.85,76.44,1.56,62.71,3.15,125.41c.85,31.31,1.67,62.62,3,93.9.37,8.49-.76,17.26,3.36,25.48,7.75,15.47,20.52,22.24,37.23,22.06,17.87-.2,30.34-8.91,36.93-25.5,2.61-6.59,1.64-13.85,1.92-20.77,1.07-27.13,1.68-54.28,2.4-81.42q1.62-62.2,3.16-124.41,1-40.47,1.94-80.95,1.56-67,3.07-133.91l2-86.45,2-92.44q1-44.24,2-88.45,1-46.72,2-93.44,1-45,2-90,1.5-67.45,3-134.92,1-43,2-85.94c.93-36.81,2-73.61,2.88-110.42a40.37,40.37,0,0,1,7.81-23.77c5.46-7.37,12.91-8.19,19.78-2.12a25.94,25.94,0,0,1,9.31,19.14c1.76,41.27,3.82,82.52,5.64,123.78.93,21,1.53,41.94,2.4,62.91,1.5,35.95,3.14,71.88,4.65,107.82.84,20,1.47,39.95,2.29,59.93q2.3,56.4,4.68,112.82c.84,20.63,1.53,41.28,2.33,61.92q2.57,66.15,5.19,132.31,1.35,33.95,2.81,67.89,2.85,67.89,5.68,135.79c.81,19.64,1.48,39.28,2.29,58.92q2.31,55.66,4.72,111.32c.77,18.47,1.44,37,2.26,55.42,1.67,37.76,2.43,75.61,5.47,113.27,2,24.51,11.69,32.06,36.24,37.74,11.61,2.68,21.11-.8,28.55-9.77,17.84-21.53,32.92-44.53,36.2-73.23a203.44,203.44,0,0,0,1.22-23.42c-.26-109.17-.3-218.33-1.07-327.48-.5-70-.13-140-.9-210-.89-79.66-.27-159.32-1-239-.86-87.66-.53-175.32-.72-263a33.38,33.38,0,0,1,6.62-20c3.62-5.1,8.43-7.06,13.29-5.72,5.84,1.62,10.51,6.62,11,12.26q2.64,27.59,5.08,55.18,3.41,38.28,6.71,76.57c1.49,17.24,2.85,34.5,4.33,51.74,1.85,21.72,3.79,43.43,5.64,65.15,1.49,17.41,2.87,34.83,4.35,52.24q3.3,38.79,6.67,77.58c1.48,17.41,2.86,34.83,4.34,52.24,1.86,21.88,3.79,43.76,5.66,65.64,1.46,17.08,2.84,34.17,4.3,51.24q3.33,39,6.72,78.08c1.47,17.25,2.84,34.5,4.32,51.74,1.86,21.72,3.81,43.43,5.69,65.14,1.45,16.92,2.82,33.83,4.29,50.74q3.31,38,6.72,76.08c1.78,20.22,3.46,40.45,5.32,60.66,1.93,20.87,3.62,41.78,6.26,62.57a46.94,46.94,0,0,0,10.68,23.93c7.92,9.57,18.62,9.25,29.4,7,8.59-1.76,15.86-6.65,21.52-13,10.69-12,18.5-25.13,18.22-42.36-.83-52.82-.68-105.66-1.49-158.48-.45-29.16-.17-58.33-.92-87.48-.8-31.15-.25-62.32-1-93.47-.69-27.16-.5-54.33-.81-81.48-.43-36.16-.45-72.33-1.2-108.48-.82-39.83-.46-79.66-.9-119.48-.21-19.33-.64-38.66-.35-58a341.73,341.73,0,0,1,7.58-65.84,33.36,33.36,0,0,1,3.43-9.87c4-7,11.47-7.07,15.3,0,4.78,8.87,6.85,18.72,9.23,28.39,7.28,29.56,13.65,59.33,17.65,89.51,2.71,20.44,4.36,41,6.34,61.55q3.51,36.27,6.75,72.56c1.84,20.38,3.54,40.78,5.33,61.16q3.3,37.29,6.63,74.58c1.5,17.08,2.88,34.16,4.37,51.24q3.3,37.79,6.68,75.57c1.44,16.41,2.81,32.83,4.29,49.23,2.22,24.69,4.68,49.36,6.71,74.07,1.87,22.74,4.38,45.35,10.27,67.47.64,2.41,1.31,4.82,2,7.21,4.31,14.37,10.33,19.11,25.46,20.06,18.71,1.18,33.06-9,39.78-28.1,3.17-9,3.86-18.53,5.74-27.81a21,21,0,0,1,7.18-12.25c6.1-5.12,12-4.3,16.62,2.18C1616.36,959.36,1617.28,960.73,1619,963.16ZM1613.64,1407l1.2-.79c4.81-3.13,7.13-8.23,10-12.84,6.09-9.73,11.19-20.07,17.82-29.48,5.21-7.4,12.16-10.53,21.13-9.09s17.86,4,27.16,2.28a36.42,36.42,0,0,1,9-.12c8.15.58,12.88,6.08,12.75,14.26,0,3.32-1.85,6.44-1,9.83-.56-.17-.78,0-.5.55l.43-.63c11.47-9.82,24.59-10.44,38.54-7.11,13.69,3.28,25.17,9.82,33.22,22.27,1.21-1.91,2.18-3.25,3-4.7a286.27,286.27,0,0,1,27.45-42.26c12.24-15.59,22.16-32.49,26.69-52,4-17.18,6.28-34.68,9.22-52,1.87-11.07,2.8-22.12-.12-33.17-3.93-14.88-10.11-27.92-26.06-33.49-3.28-1.15-6.32-3-9.49-4.44-10.88-5-22.13-9.28-32.46-15.42-13.25-7.89-20.17-21.39-17.75-35.75,2.37-14,6.84-27.55,14.36-39.69,10.66-17.22,25.35-29.4,45.68-33.7,5.69-1.2,11.47-2,17.11-3.41,5.1-1.26,5.84-3,4-8a55.39,55.39,0,0,0-9-15.48c-9.88-12.59-16.4-13.75-28.74-3.63-30,24.58-48.35,56.36-56.41,94-3.52,16.47-1.57,32.42,10.31,45.47,9.78,10.75,20.67,20.31,34.31,26.15,6,2.55,11.85,5.31,17.71,8.09a27,27,0,0,1,11.08,9.11c13.13,19.25,15.45,40.81,10.45,62.63-4.76,20.76-18.59,36.49-34.14,50.56-14.22,12.87-30.93,17.74-49.81,15.88a312.94,312.94,0,0,1-63.82-13.47c-7.72-2.45-13.77-6.71-18-13.4-7.92-12.52-15.73-25.13-21.62-38.78-2.26-5.23-3.64-10.61-3-16.47,1.32-13.14,7.51-24.08,15.37-34.14,7.33-9.39,16.81-11.33,27.66-6.39,12.22,5.56,17.09,16.27,19.38,28.49,2.39,12.73-8.93,25.24-21.75,23.48a41.81,41.81,0,0,0-5.71,0c8.84,6.78,17.82,12.91,29,14.64a10,10,0,0,0,3.48-.17c17.57-3.62,29.94-13.18,35-30.92a62.65,62.65,0,0,0-3.09-43.88c-11.75-26.31-28.4-48-57.62-56.36a169.79,169.79,0,0,0-53.8-6.58,73.82,73.82,0,0,0-40.41,14.11c-13.93,9.92-18.19,24-16.88,40.33a11.89,11.89,0,0,0,3.64,8c2.34,2.14,5,5.26,7.94,4.37,2.59-.79,1.5-4.91,2.07-7.54a2.74,2.74,0,0,0,0-.5c.46-8.85,4.75-15.21,12.83-18.66,19.19-8.19,39.07-1.7,51.26,15,4.17,5.72,3.84,12-.14,17.76-7.74,11.21-17.84,19.4-31.46,22.13a279.89,279.89,0,0,1-55.56,5.32,54.89,54.89,0,0,1-16.26-2.27c-6.91-2.15-11.53-6.33-12.85-13.78a98.77,98.77,0,0,1-1.73-14.85c-.53-22.33-.26-44.66,3.07-66.79,3.77-25.08,14.85-46.09,35.93-61.09,15.67-11.15,31.66-13.24,49-3a137.78,137.78,0,0,1,23.19,17.19c7.13,6.54,15.23,10.22,25.06,8.33,22.23-4.27,41.81-13.8,56.68-31.13,13.8-16.09,23.1-34.93,30.48-54.72a77.5,77.5,0,0,0,4.57-30.4c-.42-10.87-5-15.35-15.85-15.47a39.87,39.87,0,0,0-15.11,2.88c-4.79,1.87-6.41,5.29-5.62,10.3a169.7,169.7,0,0,0,5.21,22.84c3.36,11.11,4,22.35.74,33.47-6,20.46-20.4,33.45-39,42.38-8,3.81-16.27,5.72-25.19,4-8.25-1.62-14.5-6.7-20.38-12.06-9.78-8.9-21.27-14-33.9-17.2-14.27-3.62-27.35-1.51-39.33,7.18-7.28,5.29-14.64,10.45-21.91,15.75-38.2,27.9-54.84,65.13-49.1,112.33,1.71,14.09.5,27.67-7.85,40.23-21.18,31.85-72.34,36.52-100,18l-5.28-3.52c-.35,1.91.56,2.53,1.12,3.28,9.27,12.42,19,24.47,28.57,36.65s22.75,15.34,37,16.5c3.43.28,5.65-1.18,7.3-4.09q5.19-9.12,10.62-18.1c4.16-6.85,8.48-13.58,15.28-18.24,20.39-14,42.94-15.73,66-10,22.57,5.61,41.46,18.56,59,33.56,9.28,8,15.56,17.82,17.83,29.87,4,21,2.36,41.77-3.81,62.14-3.1,10.28-9,19.24-14.77,28.2-.45.4-.89.81-.47,1.49-.57-.22-.9-.17-.62.55Zm-1300,0c.2.27.29,1.07.74.15l-.76-.13c.41-.67,0-1.08-.46-1.49-2.05-3.23-4.13-6.43-6.14-9.68-13.66-22-15.56-46.44-14-71.33.83-13.6,5.8-25.94,15.76-35.8,7.73-7.66,16.49-14,25.61-19.88,22-14.17,45.21-23.12,72.13-19,19.11,3,34.9,10.59,44.87,28,3.89,6.79,7.92,13.5,11.95,20.21,1.11,1.84,2.2,4,4.76,4,13.45-.18,26.49-2.23,36.11-12.67,11.28-12.26,21.05-25.81,31.11-39.09.88-1.15,2.44-2.2,2-4.47a28.44,28.44,0,0,0-2.41,1.51c-21.6,16.89-62,17.61-87.08-.19-15.58-11.06-25-25.69-24.14-45.54.44-10.48,1.69-20.95,1.58-31.42-.28-28.78-11.21-53.51-30.59-74.42-13.58-14.66-30.61-25.11-47.08-36.1-7.7-5.14-16.82-6.56-25.94-5.23-15.77,2.31-30.25,7.74-42.09,19a72,72,0,0,1-8.69,6.73,30.51,30.51,0,0,1-22.25,5.25c-12.71-1.78-23.33-7.93-32.77-16-19.12-16.34-26.81-36.76-20.34-61.68,2.17-8.37,4.51-16.69,5.78-25.27.74-5-.81-8.51-5.64-10.3-6.81-2.52-13.74-3.75-21-2.17-5,1.08-7.85,4-9,8.84-2,8.49-1.15,16.94.65,25.25,4,18.66,13.22,35.06,22.83,51.3,13.68,23.09,34.26,36.59,59.5,44,13.11,3.87,24.55,2,34.4-8.05,7.16-7.31,15.78-12.61,24.8-17.47,14.05-7.56,27.47-6.46,40.78,1.4,19.67,11.62,31.59,29.11,38.09,50.65,4.13,13.68,4.79,27.87,5.55,42,.9,16.79,1.37,33.63-.65,50.41-1.13,9.34-6.09,15.2-15.43,17.22a64.19,64.19,0,0,1-10.33,1.62c-16.89.82-33.57-1.45-50.27-3.34-15.6-1.75-28.67-8.21-38.49-20.69-7.52-9.56-7-17.43,1.67-26.07,10.31-10.26,22.51-15,37.19-13.06,13.27,1.7,21.75,9.6,22.87,21.7.26,2.83-.65,7.27,2,8,3.31.91,6.19-2.51,8.61-5.06a12.18,12.18,0,0,0,3-7.78c1-14.87-2.38-28.16-14.57-38a70.09,70.09,0,0,0-32.37-14.76c-15.62-2.73-31.18-1.22-46.67,1.51-11.66,2.05-23.28,4.33-33.64,10.47-23.28,13.81-37.36,34.76-44.94,60.14a56.88,56.88,0,0,0,2.54,39.57c9.65,22.4,32.82,30.32,53.92,18.42q4.78-2.7,9.42-5.66c.8-.52,2.33-.84,1.76-2.37-2.07,0-4.07,0-6.06,0-13.21.31-22.53-9.3-21.34-22.46A37.86,37.86,0,0,1,231,1214.47c8.94-9.25,26.89-14.94,38.55,2.45a105.64,105.64,0,0,1,10.16,18.31c4.44,10.69,4.58,21.21-.45,31.87-5.64,11.93-12.54,23.12-19.21,34.45-4.94,8.4-12.08,13.75-21.59,16.55a395.58,395.58,0,0,1-52,11.79c-22.8,3.49-43.85.65-61.3-16.12-23.16-22.24-39.66-47-33.7-81.51,3.47-20.14,10.61-36.65,31.6-43.93,12.72-4.41,23.53-12,33.92-20.6,18.26-15.2,23.83-34,19.16-56.7-5.77-28.14-19.67-52.15-37.29-74.24a90.37,90.37,0,0,0-25-22c-7.21-4.2-11.12-3.66-17.12,1.91a55.11,55.11,0,0,0-14.42,21.34c-1.86,5-1,6.6,4,8a49.7,49.7,0,0,0,8.76,1.87c17.55,1.72,32.18,9.4,44.1,22.09,14.56,15.51,21.3,34.71,24.49,55.29,1.41,9.06-1.83,17-7.47,24.1-6,7.65-14.43,11.61-22.88,15.59-11.89,5.61-24.17,10.38-35.73,16.69-4.14,2.26-8.16,4.6-10.7,8.74-8.21,13.45-12.27,27.87-10.67,43.78,1.42,14.09,4.63,27.88,6.47,41.89,3.39,25.79,12.2,49.32,28.43,69.87a295.92,295.92,0,0,1,30.12,45.88c.74,1.4,1.26,3.08,3,3.73,19.06-24.61,47.56-30.42,71.45-14.61.15.21.06,1,.6.26l-.67-.18c.58-2,0-3.95-.47-5.88a19.36,19.36,0,0,1-.21-8.43c1.27-5.82,6.46-9.41,13.43-9.9,7.64-.53,15.24,1.86,22.89.22,3.9-.83,7.83-1.51,11.75-2.2,9.6-1.69,16.8,1.85,22.23,9.83,7,10.35,12.5,21.63,19.33,32.08,2.25,3.44,4.1,7.27,7.9,9.44Zm782.71-105.28c-11.37,6.62-21.76,14.58-28.06,26.29-11.3,21-15.62,43.31-10.63,67,6.55,31.18,21.38,56.42,50.48,71.78,5,2.63,9.36,6.37,14.16,9.36,29.34,18.24,55.48,40.89,83.57,60.87,23,16.38,40.45,37.7,48.34,65.47a151.54,151.54,0,0,1,3.51,67.26c-9.74,57.85-44.58,94.66-98,115.4-10.78,4.18-14,7.8-13.85,19.49,0,.5,0,1,0,1.5,1.07,11.38-2.56,21.35-9.26,30.33-9.73,13-20.48,25-35.41,32.39a23.72,23.72,0,0,0-11.65,12.5c-2.62,6.15-2.24,7.33,4.57,7.34a463.06,463.06,0,0,1,49.8,2.81c8.3.91,15.24-2.61,19.71-10.19a67.56,67.56,0,0,0,6.45-15.12c4.94-16.62,9.85-33.14,3.69-50.76-2.4-6.89.5-12.22,7-15.91,5.06-2.86,10.41-5.22,15.66-7.74,32.84-15.74,56.51-40.34,69.52-74.35,7.89-20.61,9.9-42.66,12.68-64.44,1-7.85-.16-15.64.13-23.45.47-12.45,5.91-16.34,17.85-13.25,11.32,2.93,23,3.85,34.56,4.34,11.43.49,15.54,4.33,12.32,15.12-3.75,12.59-2.51,24.21,3,35.74.43.89.67,1.88,1.05,2.8,5.69,14,11.39,27.91,17.49,42.87a13.78,13.78,0,0,0,.38-2.23c-.14-1.15-.33-2.3-.53-3.44-2-11-3.49-22.46,2.81-32.08,6-9.1,4.1-16.14-.61-24.63-5.92-10.68-7.42-22.36-3.2-34.26,3.39-9.59,7.23-19,13.07-27.42,1-1.39,2.5-2.63,2.28-5l-19.52,6.24a65.12,65.12,0,0,1-31.06,2c-16.44-2.78-30.74-10.45-44.74-19a88.14,88.14,0,0,1-35.59-40.7c-12.25-27.75-13.17-55,3.34-81.61,3.51-5.65,6.56-11.59,9.55-17.54,4-8,5.57-16.72,6.91-25.5-3.14,4.76-5.75,9.84-9.82,13.81-29.4,28.73-63.55,42.17-104.94,32.73-24-5.48-44.46-16.71-59.78-36.32-25.68-32.86-22.39-84.34-.94-113.88,1.45-2,3.25-3.8,4-6.26.2-.2.62-.55.59-.59C1096.93,1300.93,1096.64,1301.35,1096.36,1301.76Zm-265.44,0c-.27-.41-.56-.83-1-.19a5.31,5.31,0,0,0,.6.6c1,1.69,2,3.44,3.1,5,17.5,25,22.18,52.68,15.35,81.82-11.66,49.77-69.39,83.49-119.08,70.72-23.51-6-44.92-15.62-61.4-34.2-3.66-4.12-6.33-8.91-9.83-14.57a96.31,96.31,0,0,0,13.07,37.67c5.54,9.29,11.36,18.6,13.83,29.25,6.55,28.31-1,53.69-17.23,76.94-9.71,13.94-23.91,22.41-38.49,30.34-22.74,12.36-46.17,16.58-71,6.54-3.52-1.42-7.25-2.33-10.89-3.48a154.89,154.89,0,0,1,14.65,30.47c3.46,9.73,4,19.41.38,29.27a129,129,0,0,1-7.88,17.24c-1.28,2.33-1.26,3.89.3,6.24,6.84,10.36,10,21.65,7.6,34.16-.65,3.4-.92,6.88-1.36,10.32,6.84-13.55,12-27.73,18.09-41.53,5.9-13.44,8.22-26.64,3.35-41-2.42-7.14,2.31-12.25,9.95-12.58,13.8-.59,27.5-1.9,41-5.16,7.73-1.86,12.35,1.62,13.89,9.5,1.39,7.17-.46,14.3.15,21.42a439.15,439.15,0,0,0,7.58,51.29c8.32,40,31.65,69,66.25,89.43,7.29,4.3,15.29,7.37,22.82,11.29,8.89,4.64,11,10.28,8.08,19.83-.79,2.54-1.86,5.11-2,7.71-1,19.44,4,37.59,12.65,54.77,4.46,8.84,12.55,11.64,21.88,10.57,14.07-1.62,28.12-3,42.31-2.51a41.73,41.73,0,0,0,7-.29c5.25-.68,5.5-1.24,3.46-6.33-2.24-5.59-5.58-10.28-11.16-12.92-13.63-6.46-23.66-17.09-33-28.47-8.64-10.51-13.6-22.16-12.63-36.26.8-11.64-2.74-15.79-13.74-19.4-23-7.53-42.74-20.61-59.28-37.72-36.1-37.31-46.33-82.62-38-132.89,5.3-32,23.6-56,48.29-75.62,7.28-5.8,15.45-10.49,22.71-16.31A951.85,951.85,0,0,1,826.69,1462c8.35-5.29,16.35-11.13,22.07-19.3,19.51-27.88,27.76-58,19.34-92C862.67,1328.7,850.29,1312.75,830.92,1301.76Zm94.24,93.07c-1.54.32-1.94,1.69-2.65,2.74-8.72,13-17.34,26.07-26.17,39-16.05,23.5-34.45,44.86-56.45,63.12-22.55,18.7-48.27,32.63-72.51,48.76-15.6,10.39-30.91,20.54-43,35.29-16.34,19.93-27.32,41.26-23.88,68,5.17,40.25,24.35,71.48,59.71,91.85a64.86,64.86,0,0,0,42.77,8.16c4.24-.65,8.12-.89,11,2.53s2.27,7.47.8,11.38a27.53,27.53,0,0,0-1.93,10.22c.3,19.56,6.91,36,21.35,49.87s30.33,21.41,50.68,19.56c20.18-1.84,35.64-10.8,46.63-27.72,4.05-6.23,4.61-13.24,4.78-20.43-2.88,5.29-5.58,10.78-10.43,14.38-19.82,14.76-41.52,22.11-65.91,13.39-32.37-11.57-42.23-45.19-22.15-73,9.91-13.72,23.89-19.57,39.83-22.21,4.45-.73,9.42-2.39,12.26,2.41,3,5-.81,8.58-4.11,12.09-6.57,7-2.6,19.83,6.66,21.94,11.69,2.67,23.24-5.81,26.73-19.62-21-3.75-29.63-15-29.27-38.17-1.86-.11-3,1.29-4.34,2.15-7.34,4.6-14.57,9.38-22,13.87-12.89,7.83-26.84,12.49-42,12.91-27.15.75-52.26-5.59-72.07-25-23.06-22.59-31.58-50.6-27.08-82.6,6.15-43.66,45.87-88.72,106.89-85.67,4.69.23,9,1.86,10.68,6.81,1.59,4.69-1.23,8-4.41,10.85-5.92,5.41-12.67,9.75-19.16,14.41-6.92,5-12.39,11-15.9,18.81-3.16,7.07-2.7,13.35,2.05,19.62,16.86,22.25,45.23,27.3,68.34,11.54,19.15-13,35.37-29.37,49.77-47.4,14.24-17.83,24.07-38.3,33.78-58.79,1.83-3.86,4.3-5.88,8.82-5.92s7.46,1.64,9.43,5.8c4.13,8.72,8.49,17.34,12.88,25.94,16.81,32.9,41,59.44,71.05,80.52,22.74,16,51.66,10.35,68.21-12,4.57-6.16,4.79-12.27,1.91-19.21-4.12-9.94-12-16.16-20.33-22.08-5.84-4.13-12-8-16.81-13.32s-3.39-11.65,3.31-14.47a16.57,16.57,0,0,1,5.83-1.23,108.16,108.16,0,0,1,46.77,8.54c32.46,13.67,62,50.91,60.29,94.53-1.26,32.25-13.87,58.78-41.54,75.35-34.74,20.82-70.66,21.31-105.68-1-7-4.44-13.94-8.91-20.87-13.33-.37.47-.55.6-.55.71.94,20.22-7.58,34.43-27.56,37.34-2.1.31-2,1.18-1.19,2.65,3,5.39,6.11,10.79,11,14.71,8.68,6.93,22.62,3,24.66-6.94,1.07-5.28.14-10.16-4.29-14-2.92-2.56-4.55-6-2.84-9.87,1.61-3.65,5.12-4,8.57-3.55,18.06,2.44,34,8.4,45,24.35,17.34,25.14,9.64,55.5-17.65,69.2-18.06,9.08-35.79,6.56-53.59-.3-12.41-4.77-22.55-12.15-27.88-24.89,0-.1-.46,0-.91-.08.65,7.37,1.54,14.44,5.58,21,16.79,27.28,55.14,34.16,79.9,20.62,8.2-4.49,14.55-11,20.9-17.65,15.71-16.38,20.39-35.58,14.83-57.43-2.21-8.7,2.94-14,11.88-12.2,2.44.48,5,1.34,7.35,1.14,14.88-1.23,29.17-4.1,42-12.67,23.5-15.67,39.73-36.68,48.4-63.5,7.39-22.84,9.44-45.76-1.82-68-8.6-17-20.32-32-35.31-43.57-18.16-14.06-38-25.87-57.59-37.84-29.29-17.89-55.54-39.08-77.21-65.77-16.2-20-29.86-41.69-44.16-63-.88-1.31-1.23-3.16-3.21-3.66.19,3.37.29,6.66.55,9.93,1.69,20.57,3.14,41.24,8.69,61.17,11.37,40.81,28.93,79,51.44,114.86,3,4.78,6.47,9.32,8.28,14.77a7.37,7.37,0,0,1-2.2,8.19c-2.37,2.15-5.22,1.86-8,.53-3.49-1.68-6.37-4.23-9.31-6.69-29.74-24.83-53.85-54.34-73.19-87.86-5-8.71-10-17.42-14.78-27-.81,1.44-1.23,2.12-1.59,2.83-20.4,40-45.47,76.39-79.56,106.07-4.77,4.16-9.38,8.52-14.76,11.91-3,1.89-6.31,2.85-9.28.32-3.18-2.7-3.43-6.33-1.72-10a41.78,41.78,0,0,1,3.11-5.69,386,386,0,0,0,33.36-61.35c9.28-21.55,19.36-42.8,24.06-66A447.35,447.35,0,0,0,925.16,1394.83Zm521.52,92.55c-1-15.41,5.17-26.53,18.58-32.88,13.68-6.47,26.91-4.26,39,4.54,2,1.43,3.1,1.25,4.75.08a18.88,18.88,0,0,1,14.79-3,119.67,119.67,0,0,1,27,8.62c6.15,2.7,6.36,9.9.7,13.54-2.51,1.62-5.31,2.77-7.92,4.24-10.59,6-13,13.82-7.72,24.72,3.22,6.61,7.35,12.21,15.73,11.57a26.94,26.94,0,0,0,12.18-4.16,13.28,13.28,0,0,0,6.81-12,95.68,95.68,0,0,0-2.08-20.81c-1.74-8,1.64-12.44,9.76-12a60.74,60.74,0,0,1,31.8,10.59c2.49,1.71,4.58,2.15,7.32.71a16.61,16.61,0,0,1,9.19-1.88c13.41,1.16,24,7,29.79,19.5,5.51,12,2.69,23-5.13,33.12-.77,1-2.22,1.82-.87,3.36,3.89,4.43,4.16,10,4.95,15.44,2,13.57-1.49,21.59-11.19,26.2-6.13,2.91-11.09,1.82-14.79-3.75a15.15,15.15,0,0,0-6.81-5.57,57.56,57.56,0,0,0-19.83-4.54c-6.18-.43-10.51,2.23-13.73,7.31a27.37,27.37,0,0,0-4,11.18c-1,7.72,3.41,17.23,9.39,18.07,13.3,1.86,26.6,2.31,38.2-6.52,4.91-3.73,10-7.26,14.88-11,12.72-9.6,17.62-22.13,13.74-37.73-2-8.09-1.66-15.87,2.25-23.28a23,23,0,0,0,2.16-14.56,66.86,66.86,0,0,0-6.42-21.41c-5.78-11.14-20.85-18.25-33-15.21-10.44,2.61-19.72,1.09-28.16-5.74a16.45,16.45,0,0,0-13.56-3.81c-13.5,2.48-25.71,0-36.83-8.28-6.32-4.7-13.61-5.57-21.41-4.45-10.64,1.54-21.37,1.68-31.36-3.11-7.94-3.82-15.27-3.72-23.34.11-10.25,4.87-17.66,1.1-20.7-9.71a83.73,83.73,0,0,1-3-28.66c1.45-20.59,2.87-41.18,4.44-61.76.19-2.56-.57-3.59-3-4-4.43-.71-8.81-1.72-13.23-2.51-19.64-3.54-36.62-11.75-49.56-27.46a987.28,987.28,0,0,1-72.6-99.7,18.42,18.42,0,0,1-2.59-14.36c1.22-5.34,2.09-10.77,3.12-16.16.91-4.73,0-9.1-3.48-12.46-8.59-8.33-18.81-13.07-31-12.77-4.95.12-8.58,2.56-10.16,7.43s-3.23,9.47-4.29,14.32c-3.08,14,.89,20.89,14.34,25.59,1.73.6,3.45,1.24,5.19,1.81,11.33,3.69,19.5,11.18,25.53,21.25,3.16,5.28,6,10.76,9.43,15.89,18.49,27.82,31.37,58.27,42,89.74,7,20.62,7.29,41.18-2.21,61.23-1.79,3.78-.79,5.62,2.65,7.37,11.12,5.68,22.11,11.63,33.21,17.35a196.53,196.53,0,0,1,38.65,25.57c8,6.87,9.58,13.3,6.14,23.25a43.47,43.47,0,0,1-1.84,4.64,17.88,17.88,0,0,0-1.09,13.56c2.2,7.18,1.71,14.24-2.31,20.7-9.08,14.59-9.46,30.59-7.22,46.77.94,6.76.41,12.82-2.32,18.92-3.4,7.59-6.67,15.25-10,22.88-1.51,3.47-2.13,7-.52,10.63,3.72,8.32,3.62,16.77,1.14,25.37a21.51,21.51,0,0,0,1.34,16,164.47,164.47,0,0,0,18.24,29.75,15.18,15.18,0,0,0,8.52,5.8c7.16,1.64,14.52,2.88,21.77,1.8a57.84,57.84,0,0,1,29,2.72c7.91,2.88,16.36,4.3,24.44,1,12.91-5.33,25.63-11.19,36.75-19.9,3.52-2.76,6-6.26,6.37-10.88a51.64,51.64,0,0,0-4.08-24.89c-3-7.06-12.46-11.66-19-9.48-5.59,1.87-10.45,12.16-9.36,18.9.86,5.27,4.89,7.72,8.37,10.71,7.75,6.66,7.27,14.16-1.49,19.36-3.14,1.86-6.67,3-9.84,4.86-12.34,7.08-24.42,7.92-36.52-.69a13.18,13.18,0,0,0-13.8-1.39c-12,5.77-22.37,2-32.85-4.52-14.38-8.94-24.72-34-17.69-50.52a5.83,5.83,0,0,0-.56-5.29c-5-8.76-4-17.62-.24-26.43,2.14-5,4.52-10,6.81-15,1.42-3.09,4.67-5.08,6-7.7s-3-5.74-2.78-9.35c0-.66-.1-1.33-.1-2,0-8.49-.16-17,.22-25.48.28-6.41,2-12.65,6.39-17.53,4.15-4.67,7.56-9,4.69-15.8C1446,1491.52,1446.68,1489.07,1446.68,1487.38Zm-966.91-75.6c.32,4.7-.82,9.28-1.25,13.92A45.2,45.2,0,0,1,477,1433c-3.43,13.08-10.21,16.65-22.59,11-6.93-3.15-13.31-3.45-20.07-.2-10.29,5-21.26,5.62-32.25,3.9-9.14-1.43-17.25.21-24.54,5.65-10,7.5-21.23,9.08-33.19,7.12a18.29,18.29,0,0,0-15.05,3.69c-8.45,6.81-17.73,8.32-28.16,5.7-11.74-2.95-26.77,3.76-32.49,14.4a60.23,60.23,0,0,0-7.2,27.26,13.22,13.22,0,0,0,1.32,6.79c5.07,9.28,5.16,18.82,2.91,29-2.42,11,.19,21,8.31,29.4,5.17,5.32,11.84,8.7,17.15,13.67,9.62,9,21.35,10.2,33.45,10.21,4.52,0,9.38.1,13-3.84,5-5.43,6.22-15.18,2.64-23-3.87-8.48-8.44-11.65-17.66-10.58-9.85,1.14-20,2.18-26.21,11.88-2.38,3.7-6.62,3.94-10.42,2.78-6.31-1.94-11.75-5.67-13.29-12.38-2.24-9.77-1.55-19.61,3.22-28.61,1.36-2.56,1.28-3.68-.41-5.85-5.72-7.39-8.51-15.74-6.84-25.21,3.36-18.94,24.31-31,42.21-24.27a5.77,5.77,0,0,0,6-.88,61.25,61.25,0,0,1,32.73-10.84c7.52-.3,10.91,4.14,9.33,11.54a92.89,92.89,0,0,0-2.16,19.3c0,11.64,12,20.75,23.41,17.65,8.69-2.37,11-10,13.51-17.2,1.76-5.07.1-9.35-3.37-13.29-3.66-4.16-8.53-6.29-13.23-8.77-3.11-1.63-5.68-3.83-5.19-7.73s2.75-6.18,6.44-7.49c7.22-2.55,14.37-5.24,21.82-7.07,6.41-1.57,12.54-1.5,18.22,2.34,1.39,1,2.69,2,4.35.22,5-5.25,11.86-6.56,18.52-7.89,18-3.59,36.25,9,39.11,27a44.42,44.42,0,0,1-.43,18.36,8.14,8.14,0,0,0,2.27,8.6,31.4,31.4,0,0,1,9.48,21.42c.37,8.48.17,17,.19,25.49a14.46,14.46,0,0,1-2.6,9c-.67.91-1.53,1.52-.15,2.84,8.84,8.38,12,19.7,15.3,30.83,1.12,3.79,1.28,8.11-.54,11.79-2.78,5.63-2,10.9-1.32,17,2.8,23.78-9.45,43.88-33.31,51.34a19.59,19.59,0,0,1-14.64-.75c-7.74-3.76-14.61-2.7-21.61,2-5.84,3.87-12.38,5.68-19.5,3.84a85.45,85.45,0,0,1-25.74-11.78c-5.55-3.68-5.88-10.24-1.37-15.19,2.23-2.45,5-4.37,7.4-6.69,4.78-4.69,4.87-12.12.36-19.28-4-6.37-8.1-7.77-15.28-5.37a15.74,15.74,0,0,0-10.48,9.89,74.65,74.65,0,0,0-3.55,14c-1.77,10.89,1.86,19,11.56,24.81,6.45,3.85,13.39,6.72,19.75,10.66,12.74,7.89,25.91,8.68,39.64,3.14,7.51-3,15.33-3.11,23.13-1.93s15.59,0,23.28-1.33a14.92,14.92,0,0,0,9.09-5.73c7.29-9,13-18.91,18.2-29.19a22.7,22.7,0,0,0,1.54-17.4c-2.43-8.23-2.42-16.42,1.14-24.4,1.68-3.78,1.16-7.47-.42-11.11-3.32-7.63-6.58-15.28-10-22.87-2.75-6.11-3.19-12.18-2.26-18.93,2.2-16.18,1.81-32.18-7.28-46.76-3-4.78-4.78-10.34-3.16-15.78,2.43-8.16,1.27-15.45-1.93-23.17-4-9.64-1.86-16.25,6.1-23.17a174.7,174.7,0,0,1,31.65-21.73q20.21-10.92,40.64-21.43c3.17-1.64,3.88-3.36,2.29-6.68a69.78,69.78,0,0,1-5.19-14c-4.38-18.85-1.22-36.89,5.06-54.84,12.44-35.59,30-68.55,50.32-100.15,5.73-8.94,13.31-15.7,23.58-19.14,4.41-1.48,8.76-3.19,13-5s6.34-5.2,7.26-9.91c1.82-9.34-1-17.8-3.94-26.29-2.19-6.22-5.34-8.45-12-8.35-11,.16-20.34,4.56-28.41,11.77-4.19,3.74-5.52,8.52-4.34,14.06,1,4.88,1.6,9.86,2.81,14.69,1.54,6.14.06,11.51-3.19,16.63-21,33.11-44.37,64.46-68.9,95-12.19,15.17-27.24,25.78-46.71,29.42-6.21,1.17-12.38,2.52-18.55,3.84-1.7.37-3.76.28-3.54,3.11.47,6.31.71,12.63,1.15,18.94Q477.92,1387.13,479.77,1411.78Zm53.62,80c.77,18.78,5.38,33.94,18.46,45.69,10.31,9.27,21.63,17.11,36,16,37-2.87,54.5-23.84,55.59-58.59.63-19.82-7.91-36-23.95-48-5.52-4.14-11.05-7.78-18.08-9-13.79-2.39-26.13,1.76-37.71,8.35C545.38,1456.68,534.67,1472.23,533.39,1491.83Zm860.17,2.36c0-2,0-4,0-6a13.85,13.85,0,0,0-.44-2.45c-5.42-24.22-21.39-38.32-44.12-45.84-15.33-5.08-29.58-3.58-41.92,7.67-6.76,6.17-14.41,12.06-17.79,20.65a73.58,73.58,0,0,0-2.67,46.43c8.78,34.22,50.93,45.78,71.73,34.86C1380.67,1537.79,1393.39,1520,1393.56,1494.19ZM387.28,1406.11c11.44-.55,25.29-4.74,36.05-15.33,14.91-14.66,18.72-33.25,15.68-53.34-1.08-7.14-1.94-14.66-6.53-20.72A139,139,0,0,0,419,1302c-11-10.89-24.12-14.36-39-10.88-30.52,7.14-58.23,34.43-47.32,73.25C338.94,1386.8,362,1406.15,387.28,1406.11Zm1155.94,0c10.23.05,18.28-3,27.79-9.54,17.64-12.14,25.72-29.23,26.17-50.13.2-9.86-3-19.06-8.5-27.25-12-17.65-28.84-27.2-50-29.11-10.45-.94-19.64,2.41-27.5,9.49-6.94,6.25-14.75,12.21-18.36,20.79-4.62,11-6.83,22.83-5.24,35.11C1491.77,1387.66,1512.13,1404.29,1543.22,1406.11ZM706.66,1853.78a76.28,76.28,0,0,1,1.76-20.88c.65-3-1.14-5-4.16-5.88a94.89,94.89,0,0,1-10-3.17c-36.49-15.12-60.48-41.41-70.92-79.74-2.28-8.39-4.69-16.74-7.17-25.59-3.67,7.15-6.72,14-10.56,20.39-13.84,23-24.9,48.11-47.27,65.35,9.61,6.16,18.9,13.23,29.38,18.38A49.53,49.53,0,0,0,606,1827.2c14.13,1.08,27.4-2.38,40.46-7.12,8.37-3,15.83-1.54,23.13,3.39A259.92,259.92,0,0,1,706.66,1853.78ZM1370,1803.61c-8.2-3.71-13.45-9.58-18.12-16.14-6.56-9.23-12.72-18.73-18.66-28.36a438.17,438.17,0,0,1-22.05-40.82c-2.62,9.44-4.83,18.29-7.53,27-7.34,23.66-18.54,45-38.88,60.19-12.29,9.18-25.52,16.92-40.46,21.17-3.17.91-6.07,2.32-5.38,6a87.37,87.37,0,0,1,1.82,20.91c1.44-1.27,2-1.76,2.61-2.3a233.29,233.29,0,0,1,35.85-28.64c6.42-4.16,13.08-5.34,20.4-2.81,5,1.74,10.1,3.39,15.24,4.74,14.29,3.74,28.71,4.66,42.65-1C1349.05,1818.79,1358.74,1810.7,1370,1803.61ZM747.73,1313.9c-19.69.06-38.84,17.79-38.71,35.82.15,20.33,16.39,39,34.39,38.22,25.2-1.1,35.18-16.27,35.9-37C780,1331.53,764.21,1313.84,747.73,1313.9Zm436.16,74.18c18.78,0,36.14-20.71,34.2-40.37-2-20.09-20.79-32-35.08-33.65-5-.59-10.23-.73-14.53,2.25-9.11,6.31-17,13.38-19.51,25.26C1143.71,1366.51,1159.56,1388,1183.89,1388.08Zm-746.23,176c0,1,0,2,0,3,.39,10.24,7,15.36,17,13.12A95.58,95.58,0,0,0,469.7,1575c4.63-1.89,5.62-6.81,8.7-10,.76-.76-.21-1.47-.85-2-3.36-2.62-5.26-6.41-7.85-9.64-5.08-6.35-13.35-8.17-22.68-4.92C439.79,1551,437.64,1554.6,437.66,1564.06Zm1052,.14c0-4.16.11-8.4-3-11.77-6.92-7.61-22.64-7.07-29,.9-2.6,3.22-4.46,7.07-7.84,9.63-1.47,1.11-1,1.85-.24,3.23a23.11,23.11,0,0,0,15.26,11.73c1.45.37,2.85.9,4.28,1.33C1482.84,1583.36,1489.65,1578.36,1489.67,1564.2Z"/></g></g></svg>