<?xml version="1.0" encoding="UTF-8"?><!DOCTYPE svg PUBLIC "-//W3C//DTD SVG 1.1//EN" "http://www.w3.org/Graphics/SVG/1.1/DTD/svg11.dtd"><svg xmlns="http://www.w3.org/2000/svg" xmlns:xlink="http://www.w3.org/1999/xlink"><symbol id="icon-arrow" viewBox="0 0 13 9">
    <path d="M6.964 7.889l5.844-5.846a.658.658 0 0 0 0-.93.655.655 0 0 0-.927 0L6.5 6.497 1.12 1.114a.656.656 0 1 0-.928.93l5.844 5.845a.662.662 0 0 0 .928 0z"/>
</symbol><symbol id="icon-basket" viewBox="0 0 17 17">
    <path d="M16.25 7.451h-3.154l-2.265-6.448a.749.749 0 1 0-1.414.497l2.091 5.95H5.492l2.09-5.95a.75.75 0 1 0-1.413-.497L3.904 7.451H.749a.75.75 0 1 0 0 1.498h.205l1.836 6.7c.137.501.593.85 1.113.85h9.245c.523 0 .98-.352 1.115-.857l1.788-6.693h.2a.75.75 0 1 0 0-1.498zM6.046 14.049a.75.75 0 0 1-1.498 0v-3.803a.75.75 0 1 1 1.498 0v3.803zm3.204 0a.75.75 0 0 1-1.498 0v-3.803a.75.75 0 1 1 1.498 0v3.803zm3.204 0a.75.75 0 0 1-1.498 0v-3.803a.75.75 0 1 1 1.498 0v3.803z"/>
</symbol><symbol id="icon-close" viewBox="0 0 32 32">
    <path d="M31.752 6.139l-9.98 9.98 9.98 9.982-5.651 5.651-9.981-9.98-9.981 9.98-5.651-5.651 9.98-9.981-9.98-9.981L6.138.488l9.982 9.98L26.1.489l5.652 5.65z"/>
</symbol><symbol id="icon-facebook" viewBox="0 0 34 34">
    <path d="M29.02 0H4.98A4.986 4.986 0 0 0 0 4.98v24.04A4.986 4.986 0 0 0 4.98 34h10.028V21.98h-3.985v-5.976h3.985v-4.05a5.983 5.983 0 0 1 5.976-5.977h6.043v5.976h-6.043v4.05h6.043l-.996 5.977h-5.047V34h8.035A4.986 4.986 0 0 0 34 29.02V4.98A4.986 4.986 0 0 0 29.02 0z"/>
</symbol><symbol id="icon-feather" viewBox="0 0 73 67">
    <path d="M64.207 32.271c11.03-9.656 9.335-29.846 7.3-31.885-1.139-1.138-3.811 4.32-10.929 8.699-.618.611-1.398 3.907-1.36 8.658 0 0-1.34-3.45-1.228-7.144-1.651.89-3.467 1.732-5.41 2.526a18.633 18.633 0 0 0-11.44 14.923c-.082-3.613-2.256-6.296-.364-10.952-6.408 1.88-12.92 3.663-17.865 6.02a15.958 15.958 0 0 0-8.608 10.435c-.585 2.27-.965 5.06-.94 8.577-.5-.34-2.32-5.458-1.854-10.937-6.79 7.165-6.644 18.161-4.215 25.122v.001C4.526 54.188 0 55.434 0 55.434c3.353.461 5.142 3.122 5.142 3.122C.222 60.174 0 66.766 0 66.766c2.776-5.782 10.283-5.158 10.283-5.158.06.06.12.093.18.149-1.218-11.765 5.967-23.627 18.083-27.5 7.44-2.379 24.11-7.427 30.663-11.781-3.819 6.128-24.37 13.752-29.335 15.569-10.814 3.76-17.043 14.357-16.688 24.87 3.941-.055 8.88-6.39 18.7-11.35-1.155-1.278-5.925-3.446-11.162-2.074 5.776-3.199 10.519-3.487 14.349-2.897 3.358.518 6.8.023 9.871-1.43l.011-.005c5.725-2.74 12.029-6.236 17.076-10.767-.683-1.19-3.738-3.503-7.643-2.087 4.098-2.4 7.307-1.533 9.82-.034z"/>
</symbol><symbol id="icon-instagram" viewBox="0 0 34 34">
    <path d="M29.02 0H4.98A4.986 4.986 0 0 0 0 4.98v24.04A4.986 4.986 0 0 0 4.98 34h24.04A4.986 4.986 0 0 0 34 29.02V4.98A4.986 4.986 0 0 0 29.02 0zM17.066 25.898c-4.943 0-8.964-4.021-8.964-8.964 0-4.944 4.021-8.965 8.964-8.965 4.944 0 8.965 4.021 8.965 8.965 0 4.943-4.021 8.964-8.965 8.964zm9.961-15.937a2.992 2.992 0 0 1-2.988-2.988 2.992 2.992 0 0 1 2.988-2.989 2.992 2.992 0 0 1 2.989 2.989 2.992 2.992 0 0 1-2.989 2.988z"/>
    <path d="M27.027 5.977a.997.997 0 1 0 .002 1.993.997.997 0 0 0-.002-1.993z"/>
    <path d="M17.066 9.96a6.981 6.981 0 0 0-6.972 6.974 6.981 6.981 0 0 0 6.972 6.972 6.981 6.981 0 0 0 6.973-6.972 6.981 6.981 0 0 0-6.973-6.973z"/>
</symbol><symbol id="icon-number" viewBox="0 0 24 36">
    <path d="M12.166 13.112c2.08 0 3.936.4 5.568 1.2a9.038 9.038 0 0 1 3.84 3.504c.96 1.536 1.44 3.44 1.44 5.712 0 3.712-1.152 6.64-3.456 8.784-2.304 2.112-5.712 3.168-10.224 3.168-1.792 0-3.488-.16-5.088-.48-1.568-.32-2.944-.784-4.128-1.392v-6.24c1.184.608 2.608 1.136 4.272 1.584 1.664.416 3.232.624 4.704.624 2.144 0 3.776-.432 4.896-1.296 1.152-.896 1.728-2.272 1.728-4.128 0-3.456-2.288-5.184-6.864-5.184-.896 0-1.824.096-2.784.288-.96.16-1.76.32-2.4.48L.79 18.2 2.086.728h18.576v6.144H8.422l-.624 6.72c.544-.096 1.12-.192 1.728-.288.64-.128 1.52-.192 2.64-.192z"/>
</symbol><symbol id="icon-rabbit" viewBox="0 0 40 40">
    <path d="M28.497 6.567s-2.003-2.043-5.58-3.732c-3.576-1.69-8.22-3.13-8.618-1.193-.397 1.94 3.582 3.45 5.867 4.468 2.285 1.02 4.283 2.27 4.333 2.592.049.322-.003.216-.798 1.657-.794 1.439-.162 2.631-.609 3.031-.447.397-1.814 1.463-6.458 1.44C11.99 14.803 3.23 17.001 3.17 27.336c0 .89.237 1.246-.474 1.366C1.983 28.82 0 29.18 0 31.613c0 2.438 1.864 3.091 2.993 3.03 1.129-.059 3.208-1.544 3.624-1.247.415.298.653 1.246.357 2.137-.298.892-.951 1.964-.596 2.617.358.652.477 1.125 2.08 1.125h17.049s1.01-.236 1.01-1.66c0-1.426-.654-2.91-9.386-2.674 5.465-.594 7.544-4.456 7.188-7.247-.015-.688.415-.832.89.475.476 1.305 5.822 9.147 5.822 9.147s1.307 1.959 2.673 1.959 4.692.239 4.692-1.541c0-1.783-1.784-2.419-3.86-2.318-1.248.06-1.307-1.782-1.307-1.782s-1.07-2.853-.475-12.715c.052-.475.347-.53 1.128-.534.958-.006 5.05-.892 5.88-2.674.833-1.782-.593-5.051-3.148-7.784-2.553-2.73-4.412-3.984-8.117-3.36z"/>
</symbol><symbol id="icon-star" viewBox="0 0 40 37">
    <path d="M20 0l4.49 13.82h14.531l-11.756 8.54 4.49 13.82L20 27.64 8.244 36.18l4.49-13.82L.98 13.82h14.53L20 0z"/>
</symbol></svg>