<?xml version="1.0" encoding="UTF-8"?><!DOCTYPE svg PUBLIC "-//W3C//DTD SVG 1.1//EN" "http://www.w3.org/Graphics/SVG/1.1/DTD/svg11.dtd"><svg xmlns="http://www.w3.org/2000/svg" xmlns:xlink="http://www.w3.org/1999/xlink"><symbol id="icon-basket" viewBox="0 0 17 17">
    <path d="M16.25 7.451h-3.154l-2.265-6.448a.749.749 0 1 0-1.414.497l2.091 5.95H5.492l2.09-5.95a.75.75 0 1 0-1.413-.497L3.904 7.451H.749a.75.75 0 1 0 0 1.498h.205l1.836 6.7c.137.501.593.85 1.113.85h9.245c.523 0 .98-.352 1.115-.857l1.788-6.693h.2a.75.75 0 1 0 0-1.498zM6.046 14.049a.75.75 0 0 1-1.498 0v-3.803a.75.75 0 1 1 1.498 0v3.803zm3.204 0a.75.75 0 0 1-1.498 0v-3.803a.75.75 0 1 1 1.498 0v3.803zm3.204 0a.75.75 0 0 1-1.498 0v-3.803a.75.75 0 1 1 1.498 0v3.803z"/>
</symbol><symbol id="icon-facebook" viewBox="0 0 34 34">
    <path d="M29.02 0H4.98A4.986 4.986 0 0 0 0 4.98v24.04A4.986 4.986 0 0 0 4.98 34h10.028V21.98h-3.985v-5.976h3.985v-4.05a5.983 5.983 0 0 1 5.976-5.977h6.043v5.976h-6.043v4.05h6.043l-.996 5.977h-5.047V34h8.035A4.986 4.986 0 0 0 34 29.02V4.98A4.986 4.986 0 0 0 29.02 0z"/>
</symbol><symbol id="icon-instagram" viewBox="0 0 34 34">
    <path d="M29.02 0H4.98A4.986 4.986 0 0 0 0 4.98v24.04A4.986 4.986 0 0 0 4.98 34h24.04A4.986 4.986 0 0 0 34 29.02V4.98A4.986 4.986 0 0 0 29.02 0zM17.066 25.898c-4.943 0-8.964-4.021-8.964-8.964 0-4.944 4.021-8.965 8.964-8.965 4.944 0 8.965 4.021 8.965 8.965 0 4.943-4.021 8.964-8.965 8.964zm9.961-15.937a2.992 2.992 0 0 1-2.988-2.988 2.992 2.992 0 0 1 2.988-2.989 2.992 2.992 0 0 1 2.989 2.989 2.992 2.992 0 0 1-2.989 2.988z"/>
</symbol></svg>